<svg xmlns="http://www.w3.org/2000/svg" viewBox="0 0 1600 900" role="img" aria-label="STEEL MILL">
<defs>
  <linearGradient id="sky" x1="0" y1="0" x2="1" y2="1"><stop stop-color="#414951"/><stop offset=".52" stop-color="#e24f21"/><stop offset="1" stop-color="#ffb52d"/></linearGradient>
  <radialGradient id="glow" cx="72%" cy="28%" r="65%"><stop stop-color="#fff" stop-opacity=".42"/><stop offset="1" stop-color="#fff" stop-opacity="0"/></radialGradient>
  <pattern id="dots" width="14" height="14" patternUnits="userSpaceOnUse"><circle cx="2" cy="2" r="1.4" fill="#fff" opacity=".22"/></pattern>
  <filter id="shadow"><feDropShadow dx="0" dy="15" stdDeviation="18" flood-color="#000" flood-opacity=".38"/></filter>
</defs>
<rect width="1600" height="900" fill="url(#sky)"/>
<rect width="1600" height="900" fill="url(#glow)"/>
<path d="M0 0h940L620 900H0z" fill="#f7f1e7" opacity=".82"/>
<path d="M1600 0H980L690 900h910z" fill="#e24f21" opacity=".18"/>
<rect width="1600" height="900" fill="url(#dots)" opacity=".6"/>
<g><g fill="#252a2e" opacity=".82"><rect x="80" y="600" width="1440" height="150"/><rect x="180" y="330" width="360" height="270"/><rect x="650" y="230" width="300" height="370"/><rect x="1060" y="390" width="300" height="210"/></g><g fill="none" stroke="#ffb03a" stroke-width="11" opacity=".5"><path d="M80 680h1440M180 620l320-200M1050 620l300-170"/><path d="M790 230V120M840 230V80"/></g><path d="M700 580h200l-40 110H740z" fill="#ff5a20" opacity=".8"/></g>
<g opacity=".24" fill="#fff"><path d="M0 140L650 0h220L0 220z"/><path d="M1600 680L880 900H620l980-310z"/></g>
<g transform="translate(78 765)"><rect width="980" height="86" rx="3" fill="#08090c" opacity=".76"/><text x="28" y="47" fill="#fff" font-family="Impact,Arial Narrow,sans-serif" font-size="54" letter-spacing="3">STEEL MILL</text><text x="28" y="72" fill="#ffb52d" font-family="Arial,sans-serif" font-weight="800" font-size="16" letter-spacing="3">VIGILANTE 8 SECOND OFFENSE</text></g>
</svg>