<svg xmlns="http://www.w3.org/2000/svg" viewBox="0 0 900 1100">
  <defs>
    <linearGradient id="g" x1="0" y1="0" x2="1" y2="1"><stop stop-color="#e24b22"/><stop offset=".55" stop-color="#f4c337"/><stop offset="1" stop-color="#205274"/></linearGradient>
    <filter id="shadow" x="-30%" y="-30%" width="160%" height="160%"><feDropShadow dx="0" dy="20" stdDeviation="22" flood-color="#000" flood-opacity=".68"/></filter>
    <pattern id="scan" width="14" height="14" patternUnits="userSpaceOnUse"><path d="M0 14L14 0" stroke="#fff" stroke-opacity=".09" stroke-width="2"/></pattern>
  </defs>
  <g filter="url(#shadow)">
    <path d="M168 970L235 475 335 246 450 185 570 250 675 480 744 970Z" fill="#11141b"/>
    <path d="M255 480L333 275 451 224 568 280 650 485 594 950H315Z" fill="url(#g)"/>
    <path d="M357 270c-4-69 34-126 94-126s98 57 94 126l-28 81H385Z" fill="#1b1e26"/>
    <ellipse cx="451" cy="197" rx="70" ry="82" fill="#262a35"/>
    <path d="M384 185c15-68 116-91 151-20l-20 35c-23-32-90-38-126 10Z" fill="url(#g)"/>
    <path d="M301 484L135 664 184 733 351 595Z" fill="#191c24"/>
    <path d="M596 489L780 604 742 688 549 604Z" fill="#191c24"/>
    <path d="M246 655L160 904 238 938 351 688Z" fill="#222733"/>
    <path d="M617 655L724 903 647 939 540 687Z" fill="#222733"/>
    <path d="M365 355h171v38H365z" fill="#f7f7f7" opacity=".86"/>
    <path d="M338 430h225l52 241-72 279H355l-74-279Z" fill="url(#scan)" opacity=".42"/>
    <path d="M315 945h170l-20 47H285zM491 945h171l31 47H511z" fill="#0b0d12"/>
  </g>
  <text x="450" y="1026" text-anchor="middle" fill="#fff" font-family="Arial Black,Arial" font-size="52" font-weight="900" letter-spacing="3">CONVOY</text>
  <text x="450" y="1084" text-anchor="middle" fill="#f4c337" font-family="Arial, sans-serif" font-size="20" font-weight="800" letter-spacing="7">VIGILANTE 8 • TEMP ART</text>
</svg>