<svg xmlns="http://www.w3.org/2000/svg" width="1400" height="800" viewBox="0 0 1400 800">
<defs>
  <linearGradient id="bg" x1="0" y1="0" x2="1" y2="1"><stop stop-color="#101820"/><stop offset=".5" stop-color="#080b10"/><stop offset="1" stop-color="#1a0c08"/></linearGradient>
  <radialGradient id="r"><stop stop-color="#ffcc16" stop-opacity=".38"/><stop offset="1" stop-color="#ffcc16" stop-opacity="0"/></radialGradient>
  <pattern id="p" width="60" height="60" patternUnits="userSpaceOnUse"><path d="M60 0H0V60" fill="none" stroke="#fff" stroke-opacity=".04"/></pattern>
</defs>
<rect width="1400" height="800" fill="url(#bg)"/>
<rect width="1400" height="800" fill="url(#p)"/>
<ellipse cx="1120" cy="210" rx="390" ry="310" fill="url(#r)"/>
<path d="M-50 720L510 180h520L470 720z" fill="#ffcc16" opacity=".12"/>
<path d="M0 650C260 570 500 610 720 500s390-170 680-130V800H0z" fill="#030507" opacity=".75"/>
<text x="100" y="190" font-family="Impact,Arial Black,sans-serif" font-size="150" fill="#ffcc16" opacity=".95">02</text>
<text x="105" y="295" font-family="Impact,Arial Black,sans-serif" font-size="72" fill="#f3efe6" letter-spacing="3">SPECIAL ATTACKS</text>
<text x="110" y="350" font-family="Arial,sans-serif" font-size="20" fill="#9aa9b5" letter-spacing="6">YOUR GAMEPLAY SCREENSHOT GOES HERE</text>
<g transform="translate(890 510)">
  <path d="M0 100h350l-45-75H90z" fill="#111820" stroke="#ffcc16" stroke-width="4"/>
  <circle cx="95" cy="112" r="58" fill="#05070a" stroke="#65717d" stroke-width="10"/>
  <circle cx="285" cy="112" r="58" fill="#05070a" stroke="#65717d" stroke-width="10"/>
  <path d="M80 25h210l45 75H20z" fill="#ffcc16" opacity=".55"/>
</g>
</svg>